<?xml version="1.0" encoding="utf-8"?>
<!-- Generator: Adobe Illustrator 24.3.0, SVG Export Plug-In . SVG Version: 6.00 Build 0)  -->
<svg version="1.0" id="katman_1" xmlns="http://www.w3.org/2000/svg" xmlns:xlink="http://www.w3.org/1999/xlink" x="0px" y="0px"
	 viewBox="0 0 841.89 595.28" style="enable-background:new 0 0 841.89 595.28;" xml:space="preserve">
<style type="text/css">
	.st0{fill:#FFFFFF;}
	.st1{fill:#344668;}
	.st2{fill:#FA9370;}
	.st3{fill:none;stroke:#344668;stroke-width:6.2402;stroke-linecap:round;stroke-linejoin:round;}
</style>
<rect x="163.3" y="211.07" class="st0" width="519.58" height="304.42"/>
<rect x="275.8" y="109.3" class="st0" width="291.04" height="134.8"/>
<path class="st1" d="M518.38,297.91h-38.76c-4.56,0.05-8.23,3.76-8.25,8.32v38.69c0.04,4.49,3.72,8.09,8.21,8.05
	c0.01,0,0.03,0,0.04,0h38.76c4.38,0.05,7.96-3.47,8-7.84c0-0.05,0-0.11,0-0.16v-38.74C526.45,301.73,522.88,298.02,518.38,297.91
	 M510.38,336.93h-22.77v-22.7h22.77V336.93z M440.59,297.91h-38.76c-4.54,0.09-8.2,3.77-8.25,8.32v38.69c0.07,4.49,3.76,8.07,8.25,8
	c0,0,0,0,0,0h38.76c4.49,0.07,8.18-3.52,8.25-8c0,0,0,0,0,0v-38.69C448.82,301.67,445.15,297.96,440.59,297.91 M432.6,336.93h-22.78
	v-22.7h22.78V336.93z M362.87,297.91h-38.76c-4.49,0.07-8.07,3.76-8.01,8.25c0,0.02,0,0.05,0,0.07v38.69c-0.08,4.34,3.37,7.92,7.7,8
	c0.1,0,0.2,0,0.3,0h38.76c4.49,0.07,8.18-3.52,8.25-8c0,0,0,0,0,0v-38.69C371.07,301.68,367.42,298,362.87,297.91 M354.88,336.93
	h-22.77v-22.7h22.77V336.93z M518.38,220.24h-38.76c-4.54,0.01-8.23,3.68-8.25,8.22v38.78c0.04,4.54,3.71,8.2,8.25,8.25h38.76
	c4.49-0.07,8.07-3.76,8-8.25c0,0,0,0,0,0v-38.8c0.05-4.48-3.53-8.15-8-8.22 M510.38,259.22h-22.77v-22.73h22.77V259.22z
	 M440.59,220.24h-38.76c-4.53,0.04-8.19,3.69-8.25,8.22v38.78c0.08,4.52,3.73,8.17,8.25,8.25h38.76c4.54-0.04,8.2-3.71,8.25-8.25
	v-38.8c-0.02-4.54-3.71-8.21-8.25-8.22 M432.6,259.22h-22.78v-22.73h22.78V259.22z M362.87,220.24h-38.76
	c-4.48,0.07-8.06,3.74-8,8.22v38.78c-0.07,4.49,3.52,8.18,8,8.25c0,0,0,0,0,0h38.76c4.52-0.08,8.17-3.73,8.25-8.25v-38.8
	C371.05,223.92,367.39,220.28,362.87,220.24 M354.88,259.24h-22.77v-22.75h22.77V259.24z M236.62,336.96h-38.76
	c-4.48-0.07-8.17,3.51-8.25,7.99v39.02c0.12,4.46,3.79,8.01,8.25,7.99h38.76c4.45-0.02,8.08-3.55,8.23-7.99v-39.05
	c-0.07-4.48-3.76-8.05-8.23-7.99 M228.49,375.71H205.9v-22.74h22.71L228.49,375.71z M236.62,259.23h-38.76
	c-4.48-0.07-8.17,3.51-8.25,7.99v39.02c0.07,4.49,3.76,8.07,8.25,8c0,0,0,0,0,0h38.76c4.48,0.06,8.17-3.52,8.23-8v-39.03
	c-0.07-4.48-3.76-8.05-8.23-7.99 M228.49,297.91H205.9v-22.46h22.71L228.49,297.91z M236.62,259.22h-38.76
	c-4.48-0.07-8.17,3.51-8.25,7.99v39.02c0.07,4.49,3.76,8.07,8.25,8c0,0,0,0,0,0h38.76c4.48,0.06,8.17-3.52,8.23-8v-39.02
	C244.78,262.73,241.1,259.16,236.62,259.22 M228.49,297.91H205.9v-22.46h22.71L228.49,297.91z M236.62,336.93h-38.76
	c-4.48-0.07-8.17,3.51-8.25,7.99v39.02c0.12,4.46,3.79,8.01,8.25,7.99h38.76c4.45-0.02,8.08-3.55,8.23-7.99v-39.02
	C244.78,340.44,241.1,336.87,236.62,336.93 M228.49,375.71H205.9v-22.74h22.71L228.49,375.71z M644.58,336.93h-38.72
	c-4.48-0.06-8.16,3.51-8.23,7.99v39.02c0.13,4.45,3.78,7.99,8.23,7.99h38.78c4.46,0.02,8.12-3.53,8.25-7.99v-39.02
	c-0.07-4.48-3.77-8.06-8.25-7.99 M636.59,375.71h-22.71v-22.74h22.71V375.71z M644.58,259.23h-38.72c-4.48-0.06-8.16,3.51-8.23,7.99
	v39.02c0.07,4.48,3.75,8.06,8.23,8h38.78c4.49,0.07,8.18-3.52,8.25-8c0,0,0,0,0,0v-39.03c-0.07-4.48-3.77-8.06-8.25-7.99
	 M636.59,297.91h-22.71v-22.46h22.71V297.91z M644.58,259.22h-38.72c-4.48-0.06-8.16,3.51-8.23,7.99v39.02
	c0.07,4.48,3.75,8.06,8.23,8h38.78c4.49,0.07,8.18-3.52,8.25-8c0,0,0,0,0,0v-39.02c-0.07-4.48-3.77-8.06-8.25-7.99 M636.59,297.91
	h-22.71v-22.46h22.71V297.91z M644.58,336.93h-38.72c-4.48-0.06-8.16,3.51-8.23,7.99v39.02c0.13,4.45,3.78,7.99,8.23,7.99h38.78
	c4.46,0.02,8.12-3.53,8.25-7.99v-39.02c-0.07-4.48-3.77-8.06-8.25-7.99 M636.59,375.71h-22.71v-22.74h22.71V375.71z M518.33,297.91
	h-38.71c-4.56,0.05-8.23,3.76-8.25,8.32v38.69c0.04,4.49,3.72,8.09,8.21,8.05c0.01,0,0.03,0,0.04,0h38.76
	c4.38,0.05,7.96-3.47,8-7.84c0-0.05,0-0.11,0-0.16v-38.74c0.06-4.5-3.51-8.2-8-8.32 M510.38,336.93h-22.77v-22.7h22.77V336.93z
	 M518.38,220.24h-38.76c-4.54,0.01-8.23,3.68-8.25,8.22v38.78c0.04,4.54,3.71,8.2,8.25,8.25h38.76c4.49-0.07,8.07-3.76,8-8.25
	c0,0,0,0,0,0v-38.8c0.05-4.48-3.53-8.15-8-8.22 M510.38,259.22h-22.77v-22.73h22.77V259.22z M440.59,297.91h-38.76
	c-4.54,0.09-8.2,3.77-8.25,8.32v38.69c0.07,4.49,3.76,8.07,8.25,8c0,0,0,0,0,0h38.76c4.49,0.07,8.18-3.52,8.25-8c0,0,0,0,0,0v-38.69
	C448.82,301.67,445.15,297.96,440.59,297.91 M432.6,336.93h-22.78v-22.7h22.78V336.93z M440.59,220.21h-38.76
	c-4.53,0.04-8.19,3.69-8.25,8.22v38.78c0.08,4.52,3.73,8.17,8.25,8.25h38.76c4.54-0.04,8.2-3.71,8.25-8.25v-38.78
	C448.81,223.89,445.13,220.22,440.59,220.21 M432.6,259.22h-22.78v-22.73h22.78V259.22z M362.87,297.91h-38.76
	c-4.49,0.07-8.07,3.76-8.01,8.25c0,0.02,0,0.05,0,0.07v38.69c-0.08,4.34,3.37,7.92,7.7,8c0.1,0,0.2,0,0.3,0h38.76
	c4.49,0.07,8.18-3.52,8.25-8c0,0,0,0,0,0v-38.69C371.07,301.68,367.42,298,362.87,297.91 M354.88,336.93h-22.77v-22.7h22.77V336.93z
	 M362.87,220.24h-38.76c-4.48,0.07-8.06,3.74-8,8.22v38.78c-0.07,4.49,3.52,8.18,8,8.25c0,0,0,0,0,0h38.76
	c4.52-0.08,8.17-3.73,8.25-8.25v-38.8C371.05,223.92,367.39,220.28,362.87,220.24 M354.88,259.24h-22.77v-22.75h22.77V259.24z
	 M691.66,432.87V208.89c-0.01-4.42-3.59-8-8-8H575.1v-88.93c-0.01-4.59-3.74-8.31-8.33-8.33H275.58c-4.55,0.09-8.21,3.78-8.25,8.33
	v88.93h-108.5c-4.39,0.07-7.94,3.61-8,8v311.09c0.12,4.37,3.63,7.88,8,8h524.82c4.39-0.07,7.94-3.61,8-8v-53.43
	c0-4.49-3.64-8.13-8.13-8.13s-8.13,3.64-8.13,8.13v45.2H575.1V216.96h100.32v215.92c0,4.49,3.64,8.13,8.13,8.13s8.13-3.64,8.13-8.13
	 M267.31,511.74H167.08V216.97h100.22V511.74z M558.85,511.74H283.56V120.01h275.29V511.74z M644.64,336.93h-38.78
	c-4.48-0.06-8.16,3.51-8.23,7.99v39.02c0.13,4.45,3.78,7.99,8.23,7.99h38.78c4.46,0.02,8.12-3.53,8.25-7.99v-39.02
	C652.81,340.44,649.12,336.86,644.64,336.93 M636.59,375.71h-22.71v-22.74h22.71V375.71z M652.85,267.21
	c-0.07-4.48-3.77-8.06-8.25-7.99h-38.74c-4.48-0.06-8.16,3.51-8.23,7.99v39.02c0.07,4.48,3.75,8.06,8.23,8h38.78
	c4.49,0.07,8.18-3.52,8.25-8c0,0,0,0,0,0L652.85,267.21z M636.59,297.91h-22.71v-22.46h22.71V297.91z M479.62,352.97h38.76
	c4.38,0.05,7.96-3.47,8-7.84c0-0.05,0-0.11,0-0.16v-38.74c0.06-4.5-3.51-8.2-8-8.32h-38.76c-4.56,0.05-8.23,3.76-8.25,8.32v38.69
	c0.04,4.49,3.72,8.09,8.21,8.05C479.59,352.97,479.61,352.97,479.62,352.97 M487.61,314.23h22.77v22.7h-22.77V314.23z
	 M479.62,275.46h38.76c4.49-0.07,8.07-3.76,8-8.25c0,0,0,0,0,0v-38.78c0.05-4.48-3.53-8.15-8-8.22h-38.76
	c-4.54,0.01-8.23,3.68-8.25,8.22v38.78C471.42,271.74,475.08,275.41,479.62,275.46 M487.61,236.49h22.77v22.78h-22.77V236.49z
	 M440.59,297.96h-38.76c-4.54,0.09-8.2,3.77-8.25,8.32v38.69c0.07,4.49,3.76,8.07,8.25,8c0,0,0,0,0,0h38.76
	c4.49,0.07,8.18-3.52,8.25-8c0,0,0,0,0,0v-38.75c-0.01-4.56-3.69-8.26-8.25-8.32 M432.6,336.93h-22.78v-22.7h22.78V336.93z
	 M440.59,220.21h-38.76c-4.53,0.04-8.19,3.69-8.25,8.22v38.78c0.08,4.52,3.73,8.17,8.25,8.25h38.76c4.54-0.04,8.2-3.71,8.25-8.25
	v-38.78C448.81,223.89,445.13,220.22,440.59,220.21 M432.6,259.22h-22.78v-22.73h22.78V259.22z M362.87,297.91h-38.76
	c-4.49,0.07-8.07,3.76-8.01,8.25c0,0.02,0,0.05,0,0.07v38.69c-0.08,4.34,3.37,7.92,7.7,8c0.1,0,0.2,0,0.3,0h38.76
	c4.49,0.07,8.18-3.52,8.25-8c0,0,0,0,0,0v-38.69C371.07,301.68,367.42,298,362.87,297.91 M354.88,336.93h-22.77v-22.7h22.77V336.93z
	 M362.87,220.24h-38.76c-4.48,0.07-8.06,3.74-8,8.22v38.78c-0.07,4.49,3.52,8.18,8,8.25c0,0,0,0,0,0h38.76
	c4.52-0.08,8.17-3.73,8.25-8.25v-38.8C371.05,223.92,367.39,220.28,362.87,220.24 M354.88,259.24h-22.77v-22.75h22.77V259.24z
	 M197.86,391.97h38.76c4.45-0.02,8.08-3.55,8.23-7.99v-39.06c-0.07-4.48-3.76-8.05-8.23-7.99h-38.76c-4.48-0.07-8.17,3.51-8.25,7.99
	v39.02c0.12,4.46,3.79,8.01,8.25,7.99 M205.9,352.97h22.71v22.78H205.9V352.97z M197.86,314.23h38.76c4.48,0.06,8.17-3.52,8.23-8
	v-39.02c-0.07-4.48-3.76-8.05-8.23-7.99h-38.76c-4.48-0.07-8.17,3.51-8.25,7.99v39.02C189.67,310.71,193.37,314.3,197.86,314.23
	C197.85,314.23,197.85,314.23,197.86,314.23 M205.9,275.46h22.71v22.46H205.9V275.46z"/>
<path class="st2" d="M464.9,110.53c0.02,24.12-19.52,43.7-43.64,43.72c-24.12,0.02-43.7-19.52-43.72-43.64
	c-0.02-24.12,19.52-43.7,43.64-43.72c0.02,0,0.05,0,0.07,0C445.35,66.9,464.88,86.43,464.9,110.53"/>
<line class="st3" x1="421.23" y1="87.71" x2="421.23" y2="133.41"/>
<line class="st3" x1="444.07" y1="110.56" x2="398.38" y2="110.56"/>
<path class="st2" d="M390.57,410.12h61.42c6.92,0,12.53,5.61,12.53,12.53c0,0,0,0.01,0,0.01v105.3h-86.49v-105.3
	C378.03,415.74,383.64,410.12,390.57,410.12L390.57,410.12"/>
</svg>
